<?xml version="1.0" encoding="UTF-8"?>
<svg width="57px" height="57px" viewBox="0 0 57 57" version="1.1" xmlns="http://www.w3.org/2000/svg" xmlns:xlink="http://www.w3.org/1999/xlink">
    <!-- Generator: Sketch 52 (66869) - http://www.bohemiancoding.com/sketch -->
    <title>Atattach active</title>
    <desc>Created with Sketch.</desc>
    <g id="Web-app" stroke="none" stroke-width="1" fill="none" fill-rule="evenodd">
        <g id="1-px-a-549-px" transform="translate(-48.000000, -1011.000000)">
            <g id="Atattach-active" transform="translate(49.000000, 1006.000000)">
                <g id="clip-svgrepo-com" transform="translate(13.000000, 20.000000)" fill="#B6BDCE">
                    <path d="M2.70263432,24.5651125 C4.50163707,26.3502195 6.86392664,27.2426858 9.2270071,27.2424242 C11.5896482,27.2422498 13.9529044,26.3497835 15.7515556,24.5651125 L27.0728297,13.3312859 C29.6425073,10.7813698 29.6423315,6.63251335 27.072654,4.08268444 C25.8279746,2.84744484 24.1729132,2.16721724 22.4124881,2.16721724 C20.652063,2.16721724 18.9970016,2.84744484 17.7521465,4.08268444 L7.36280016,14.3916073 C5.82101121,15.9214872 5.82101121,18.4108011 7.36280016,19.9408554 C8.90476486,21.4707353 11.4135442,21.4706481 12.9553331,19.940681 L19.7964998,13.1523567 C20.311191,12.6415538 20.311191,11.8134392 19.7964998,11.3026364 C19.2818086,10.7918335 18.4471599,10.7918335 17.9323807,11.3026364 L11.091214,18.0909607 C10.5773137,18.601066 9.74099533,18.6009788 9.22691922,18.0910479 C8.71301887,17.5810298 8.71301887,16.7511713 9.22691922,16.2412404 L19.6162656,5.93240473 C20.3632138,5.19131329 21.3562155,4.78314185 22.4124881,4.78314185 C23.4687607,4.78314185 24.4616746,5.19131329 25.2085349,5.93240473 C26.7503239,7.46237184 26.7504996,9.9516857 25.2087107,11.4816528 L13.8874366,22.7153051 C11.3175833,25.265134 7.13634304,25.2650468 4.56675338,22.7153051 C3.32189831,21.4801527 2.63628774,19.8378752 2.63628774,18.0910479 C2.63628774,16.3442207 3.32189831,14.701856 4.56675338,13.4666164 L15.8878517,2.23278975 C16.402543,1.72198687 16.402543,0.893785142 15.8878517,0.383069461 C15.3731605,-0.127646221 14.5385118,-0.127733418 14.0237326,0.383069461 L2.70263432,11.6168961 C0.959872367,13.3461967 0,15.64542 0,18.0910479 C0,20.5366758 0.959872367,22.8358992 2.70263432,24.5651125 Z" id="XMLID_222_"></path>
                </g>
                <circle id="Oval" stroke="#D5DBE8" stroke-width="1.5" cx="27.5" cy="33.5" r="27.5"></circle>
            </g>
        </g>
    </g>
</svg>