<?xml version="1.0" encoding="UTF-8"?>
<svg width="21px" height="21px" viewBox="0 0 21 21" version="1.1" xmlns="http://www.w3.org/2000/svg" xmlns:xlink="http://www.w3.org/1999/xlink">
    <!-- Generator: Sketch 52 (66869) - http://www.bohemiancoding.com/sketch -->
    <title>clock</title>
    <desc>Created with Sketch.</desc>
    <g id="Web-app" stroke="none" stroke-width="1" fill="none" fill-rule="evenodd">
        <g id="1-px-a-549-px" transform="translate(-156.000000, -694.000000)" fill="#AAADB3">
            <g id="clock" transform="translate(156.000000, 694.000000)">
                <path d="M15.2812122,9.85086541 L11.4375756,9.85086541 L11.4375756,6.48762917 C11.4375756,5.93019321 10.9210785,5.47826087 10.2840052,5.47826087 C9.64693186,5.47826087 9.13043478,5.93019321 9.13043478,6.48762917 L9.13043478,10.8601969 C9.13043478,11.4176329 9.64693186,11.8695652 10.2840052,11.8695652 L15.2812122,11.8695652 C15.9182855,11.8695652 16.4347826,11.4176329 16.4347826,10.8601969 C16.4347826,10.3027609 15.9183276,9.85086541 15.2812122,9.85086541 Z" id="Path"></path>
                <path d="M10.5,0 C4.71031641,0 0,4.71031641 0,10.500082 C0,16.2897656 4.71031641,21 10.5,21 C16.2896836,21 21,16.2897656 21,10.500082 C21,4.71031641 16.2896836,0 10.5,0 Z M10.5,18.7500059 C5.95095703,18.7500059 2.24999414,15.049125 2.24999414,10.500082 C2.24999414,5.95095703 5.95095703,2.24999414 10.5,2.24999414 C15.049043,2.24999414 18.7500059,5.95095703 18.7500059,10.500082 C18.7500059,15.049125 15.049043,18.7500059 10.5,18.7500059 Z" id="Shape" fill-rule="nonzero"></path>
            </g>
        </g>
    </g>
</svg>