<?xml version="1.0" encoding="UTF-8"?>
<svg width="57px" height="57px" viewBox="0 0 57 57" version="1.1" xmlns="http://www.w3.org/2000/svg" xmlns:xlink="http://www.w3.org/1999/xlink">
    <!-- Generator: Sketch 52 (66869) - http://www.bohemiancoding.com/sketch -->
    <title>Atattach active</title>
    <desc>Created with Sketch.</desc>
    <g id="Web-app" stroke="none" stroke-width="1" fill="none" fill-rule="evenodd">
        <g id="1-px-a-549-px" transform="translate(-38.000000, -829.000000)">
            <g id="Atattach-active" transform="translate(39.000000, 824.000000)">
                <g id="clip-svgrepo-com" transform="translate(14.000000, 21.000000)" fill="#B6BDCE" fill-rule="nonzero">
                    <g id="entradas">
                        <path d="M23.668582,7.58095414 C22.3519258,8.89761039 20.2171836,8.89761039 18.9004766,7.58095414 C17.5837695,6.26429789 17.5838203,4.12950492 18.9004766,2.81284867 L16.5691094,0.481481481 L0,17.0505909 L2.33141797,19.3820088 C3.64807422,18.0653526 5.78286719,18.0653526 7.09952344,19.3820088 C8.41617969,20.6986651 8.41617969,22.833458 7.09952344,24.1501143 L9.43089062,26.4814815 L26,9.91237211 L23.668582,7.58095414 Z M12.9755742,9.77170804 L11.8940352,8.69016898 L12.9712578,7.61294633 L14.0527969,8.69448539 L12.9755742,9.77170804 Z M15.1386523,11.934837 L14.0570625,10.8532979 L15.1342852,9.77607523 L16.215875,10.8576143 L15.1386523,11.934837 Z M17.3017305,14.0979659 L16.2201914,13.016376 L17.2974141,11.9391534 L18.3789531,13.0207432 L17.3017305,14.0979659 Z" id="Shape"></path>
                    </g>
                </g>
                <circle id="Oval" stroke="#D5DBE8" stroke-width="1.5" cx="27.5" cy="33.5" r="27.5"></circle>
            </g>
        </g>
    </g>
</svg>