<?xml version="1.0" encoding="UTF-8"?>
<svg width="32px" height="34px" viewBox="0 0 32 34" version="1.1" xmlns="http://www.w3.org/2000/svg" xmlns:xlink="http://www.w3.org/1999/xlink">
    <!-- Generator: Sketch 52 (66869) - http://www.bohemiancoding.com/sketch -->
    <title>ic_search</title>
    <desc>Created with Sketch.</desc>
    <g id="Mobile-app" stroke="none" stroke-width="1" fill="none" fill-rule="evenodd">
        <g id="7.1---Home----1" transform="translate(-528.000000, -86.000000)" fill="#000000">
            <g id="ic_search" transform="translate(544.000000, 103.000000) scale(-1, 1) translate(-544.000000, -103.000000) translate(528.000000, 86.000000)">
                <path d="M17.8285714,28.9459459 C10.0019431,28.9459459 3.65714286,22.5690474 3.65714286,14.7026676 C3.65714286,6.83628786 10.0018733,0.459459459 17.8285714,0.459459459 C25.6552695,0.459459459 32,6.836358 32,14.7027378 C32,22.5691175 25.6551997,28.9459459 17.8285714,28.9459459 Z M17.8285714,4.52898759 C12.2380828,4.52898759 7.70614239,9.08390509 7.70614239,14.7027378 C7.70614239,20.3215704 12.2380828,24.876488 17.8285714,24.876488 C23.4190601,24.876488 27.9510005,20.3215704 27.9510005,14.7027378 C27.9510005,9.08390509 23.4189903,4.52898759 17.8285714,4.52898759 Z" id="Shape" fill-rule="nonzero"></path>
                <path d="M2.06551249,33.5405052 C1.51963787,33.5437237 0.994998004,33.3271556 0.607463833,32.9387206 C-0.197828636,32.1316685 -0.203137323,30.8178843 0.595572373,30.0041806 C0.599536193,30.0001754 0.603500013,29.9961701 0.607463833,29.9921649 L8.32898486,22.1899932 C9.16259033,21.3762895 10.4911778,21.3995341 11.2964703,22.2418465 C12.1017627,23.0841589 12.0787584,24.4266234 11.245153,25.2403271 L3.52356114,32.9387206 C3.13602697,33.3271556 2.6113871,33.5437237 2.06551249,33.5405052 Z" id="Path"></path>
            </g>
        </g>
    </g>
</svg>