<?xml version="1.0" encoding="UTF-8"?>
<svg width="239px" height="34px" viewBox="0 0 239 34" version="1.1" xmlns="http://www.w3.org/2000/svg" xmlns:xlink="http://www.w3.org/1999/xlink">
    <!-- Generator: Sketch 52 (66869) - http://www.bohemiancoding.com/sketch -->
    <title>logo white</title>
    <desc>Created with Sketch.</desc>
    <defs>
        <linearGradient x1="60.8976448%" y1="95.6553131%" x2="32.0031325%" y2="-19.4520717%" id="linearGradient-1">
            <stop stop-color="#57D2FE" offset="0%"></stop>
            <stop stop-color="#57EFFE" offset="100%"></stop>
        </linearGradient>
        <linearGradient x1="21.1792304%" y1="82.488474%" x2="82.938937%" y2="12.4960098%" id="linearGradient-2">
            <stop stop-color="#017DDA" offset="4%"></stop>
            <stop stop-color="#015ED5" offset="100%"></stop>
        </linearGradient>
        <linearGradient x1="95.0579738%" y1="53.9983641%" x2="21.7639232%" y2="47.4561843%" id="linearGradient-3">
            <stop stop-color="#57D2FE" offset="0%"></stop>
            <stop stop-color="#019CFE" offset="100%"></stop>
        </linearGradient>
        <linearGradient x1="-3.17774032e-14%" y1="49.9390456%" x2="100%" y2="49.9390456%" id="linearGradient-4">
            <stop stop-color="#017DDA" offset="4%"></stop>
            <stop stop-color="#015ED5" offset="100%"></stop>
        </linearGradient>
    </defs>
    <g id="Page-1" stroke="none" stroke-width="1" fill="none" fill-rule="evenodd">
        <g id="logo-white">
            <path d="M66.245168,15.644 L66.245168,29.988 C66.245168,30.692 65.893168,31 65.189168,31 L61.933168,31 C61.229168,31 60.965168,30.648 60.921168,30.164 L60.745168,27.788 C59.777168,29.284 57.621168,31.396 52.737168,31.396 C48.205168,31.396 45.213168,29.02 45.213168,24.664 C45.213168,18.196 51.461168,17.096 60.569168,16.92 L60.569168,15.908 C60.569168,13.18 59.073168,11.904 55.553168,11.904 C52.913168,11.904 50.757168,12.52 48.953168,13.224 C48.293168,13.444 47.897168,13.224 47.677168,12.608 L46.885168,10.188 C46.709168,9.616 46.973168,9.22 47.501168,8.956 C49.657168,8.032 53.045168,7.284 56.301168,7.284 C63.165168,7.284 66.245168,10.188 66.245168,15.644 Z M60.569168,22.244 L60.569168,20.352 C54.717168,20.528 50.757168,21.056 50.757168,24.312 C50.757168,26.116 52.121168,27.392 54.629168,27.392 C58.677168,27.392 60.569168,25.104 60.569168,22.244 Z M87.2698349,19.384 C87.2698349,14.324 85.2018349,11.992 81.5498349,11.992 C77.9418349,11.992 76.0058349,14.06 76.0058349,19.384 C76.0058349,24.708 77.9418349,26.776 81.5498349,26.776 C85.2018349,26.776 87.2698349,24.444 87.2698349,19.384 Z M87.5338349,30.164 L87.4018349,27.744 C86.1258349,30.252 83.0018349,31.484 79.8778349,31.484 C73.7618349,31.484 70.0658349,27.524 70.0658349,19.384 C70.0658349,11.288 73.7618349,7.284 79.8778349,7.284 C82.9578349,7.284 85.9938349,8.56 87.2258349,10.936 L87.2258349,0.992 C87.2258349,0.288 87.5338349,0.024 88.2378349,0.024 L92.0218349,0.024 C92.7258349,0.024 93.0778349,0.288 93.0778349,0.992 L93.0778349,29.988 C93.0778349,30.692 92.7258349,31 92.0218349,31 L88.5898349,31 C87.8858349,31 87.5778349,30.648 87.5338349,30.164 Z M109.350502,31 L105.038502,31 C104.378502,31 103.982502,30.736 103.762502,30.164 L96.1945018,8.956 C95.9745018,8.296 96.2385018,7.812 96.9865018,7.812 L100.858502,7.812 C101.562502,7.812 101.870502,8.164 102.046502,8.78 L105.346502,18.768 L107.150502,25.192 L107.282502,25.192 L109.086502,18.768 L112.342502,8.78 C112.518502,8.164 112.826502,7.812 113.530502,7.812 L117.490502,7.812 C118.194502,7.812 118.458502,8.296 118.238502,8.956 L110.626502,30.164 C110.406502,30.736 110.010502,31 109.350502,31 Z M127.163169,8.824 L127.163169,29.988 C127.163169,30.692 126.855169,31 126.151169,31 L122.323169,31 C121.619169,31 121.311169,30.692 121.311169,29.988 L121.311169,8.824 C121.311169,8.12 121.619169,7.812 122.323169,7.812 L126.151169,7.812 C126.855169,7.812 127.163169,8.12 127.163169,8.824 Z M127.163169,1.124 L127.163169,4.204 C127.163169,4.908 126.899169,5.216 126.195169,5.216 L122.279169,5.216 C121.575169,5.216 121.311169,4.908 121.311169,4.204 L121.311169,1.124 C121.311169,0.42 121.575169,0.112 122.279169,0.112 L126.195169,0.112 C126.899169,0.112 127.163169,0.42 127.163169,1.124 Z M131.247836,19.34 C131.247836,11.376 135.955836,7.284 142.863836,7.284 C145.811836,7.284 148.363836,7.988 149.639836,8.78 C150.255836,9.132 150.475836,9.528 150.211836,10.144 L149.155836,12.52 C148.891836,13.092 148.451836,13.312 147.703836,13.004 C146.603836,12.52 145.283836,12.168 143.567836,12.168 C139.651836,12.168 137.187836,14.368 137.187836,19.34 C137.187836,24.356 139.695836,26.644 143.479836,26.644 C145.327836,26.644 146.911836,26.16 148.011836,25.588 C148.715836,25.28 149.155836,25.5 149.375836,26.072 L150.431836,28.492 C150.695836,29.108 150.431836,29.46 149.815836,29.856 C148.539836,30.648 145.811836,31.484 143.083836,31.484 C135.999836,31.484 131.247836,27.304 131.247836,19.34 Z M165.120502,27.216 C167.364502,27.216 169.212502,26.688 170.884502,25.852 C171.544502,25.544 171.984502,25.852 172.204502,26.468 L172.952502,28.536 C173.128502,29.152 172.908502,29.504 172.292502,29.812 C170.444502,30.736 167.804502,31.528 164.636502,31.528 C156.848502,31.528 152.228502,27.04 152.228502,19.428 C152.228502,11.64 156.628502,7.284 163.448502,7.284 C170.312502,7.284 174.052502,11.816 174.052502,18.328 L174.052502,20.484 C174.052502,21.232 173.744502,21.54 172.996502,21.54 L157.992502,21.54 C158.432502,25.016 161.028502,27.216 165.120502,27.216 Z M163.536502,11.596 C160.104502,11.596 158.168502,13.62 157.860502,17.844 L168.772502,17.844 L168.772502,17.58 C168.772502,13.928 167.012502,11.596 163.536502,11.596 Z" id="adviceme" fill="#FFFFFF" fill-rule="nonzero"></path>
            <g id="SVG-(1)" transform="translate(0.000000, 3.830508)">
                <path d="M4.61912377,14.4347618 L6.35129519,11.5478094" id="Path"></path>
                <path d="M25.4471642,29.4469141 C23.6066809,29.4450124 21.9069618,28.484091 20.987966,26.9259452 L18.5927594,22.8787681 L15.0121523,16.8182226 L17.7246278,12.2055309 C17.749727,12.1549173 17.780104,12.1069694 17.8152761,12.0624488 C18.5179302,10.9967643 19.7371817,10.3647992 21.0342218,10.3939981 C22.3312618,10.4231969 23.5194342,11.1093577 24.1711153,12.2055309 L25.9143515,15.1489324 L29.9098488,21.8874141 C30.8315951,23.4459973 30.8323577,25.3666851 29.9118495,26.9259667 C28.9913413,28.4852483 27.2894107,29.4462292 25.4471642,29.4469141 Z" id="Path" fill="url(#linearGradient-1)"></path>
                <path d="M5.15624399,29.4469125 C6.99661844,29.4457143 8.69639212,28.4851673 9.61471011,26.9274205 L12.0095234,22.8826144 L15.5895427,16.8256194 L12.894942,12.21563 C12.8685605,12.1657476 12.8382585,12.1179382 12.8043086,12.0726318 C12.1031797,11.0011541 10.8803425,10.3647684 9.57874661,10.3939933 C8.27715076,10.4232182 7.08554624,11.1138158 6.43556929,12.21563 L4.69261928,15.1573072 L0.694291966,21.8918412 C-0.229631465,23.4492267 -0.231547958,25.3700052 0.689265898,26.9291467 C1.61007975,28.4882881 3.3133863,29.4483392 5.15624399,29.4469125 Z" id="Path" fill="url(#linearGradient-2)"></path>
                <path d="M5.15624399,29.4469125 C6.99661844,29.4457143 8.69639212,28.4851673 9.61471011,26.9274205 L12.0095234,22.8826144 L15.5895427,16.8256194 L12.894942,12.21563 C12.8685605,12.1657476 12.8382585,12.1179382 12.8043086,12.0726318 C12.1031797,11.0011541 10.8803425,10.3647684 9.57874661,10.3939933 C8.27715076,10.4232182 7.08554624,11.1138158 6.43556929,12.21563 L4.69261928,15.1573072 L0.694291966,21.8918412 C-0.229631465,23.4492267 -0.231547958,25.3700052 0.689265898,26.9291467 C1.61007975,28.4882881 3.3133863,29.4483392 5.15624399,29.4469125 Z" id="Path" fill="url(#linearGradient-2)"></path>
                <path d="M24.2503998,12.0653621 C23.6160249,10.9470631 22.4530235,10.2461332 21.182671,10.216471 C19.9123186,10.1868089 18.7188342,10.8327159 18.0345351,11.9202244 C18.0002129,11.9653846 17.97057,12.0140214 17.9460773,12.0653621 L15.3127553,16.7443237 L12.6556177,12.0653621 C12.0065771,10.9199761 10.8045734,10.2140033 9.50345646,10.2140033 C8.20233956,10.2140033 7.00033586,10.9199761 6.35129519,12.0653621 L9.51196202,6.53630844 L12.1554907,1.85389116 C12.8050185,0.706982865 14.0083952,2.12209263e-16 15.3110542,0 C16.6137132,-2.12209263e-16 17.8170898,0.706982865 18.4666177,1.85389116 L21.1237552,6.52248581 L24.2503998,12.0653621 Z" id="Path" fill="url(#linearGradient-3)"></path>
                <path d="M12.4172521,12.2304133 C12.3918466,12.180032 12.3626658,12.1317446 12.3299721,12.0859852 C11.2928755,10.4301956 9.16777885,9.90301149 7.50607613,10.8892955 C11.0006313,9.10457719 12.8234395,20.786057 12.8234395,20.786057 L15.0121523,16.9002542 L12.4172521,12.2304133 Z" id="Path" fill="url(#linearGradient-4)" opacity="0.6" style="mix-blend-mode: multiply;"></path>
            </g>
            <path d="M198.152,16.856 L198.152,29.704 C198.152,30.408 197.844,30.716 197.14,30.716 L193.4,30.716 C192.74,30.716 192.388,30.408 192.388,29.704 L192.388,16.416 C192.388,13.6 191.464,11.972 188.692,11.972 C185.568,11.972 183.808,14.128 183.808,17.12 L183.808,29.704 C183.808,30.408 183.5,30.716 182.796,30.716 L179.056,30.716 C178.352,30.716 178,30.408 178,29.704 L178,8.54 C178,7.836 178.352,7.528 179.056,7.528 L182.532,7.528 C183.236,7.528 183.544,7.88 183.588,8.408 L183.808,10.696 C184.732,8.98 186.976,7 190.804,7 C194.368,7 196.48,8.364 197.492,10.916 C198.768,8.76 201.1,7 205.148,7 C210.208,7 212.54,10.168 212.54,15.448 L212.54,29.704 C212.54,30.408 212.232,30.716 211.528,30.716 L207.744,30.716 C207.084,30.716 206.732,30.408 206.732,29.704 L206.732,16.46 C206.732,13.6 205.764,11.972 202.948,11.972 C199.912,11.972 198.152,14.128 198.152,16.856 Z M229.271408,26.932 C231.515408,26.932 233.363408,26.404 235.035408,25.568 C235.695408,25.26 236.135408,25.568 236.355408,26.184 L237.103408,28.252 C237.279408,28.868 237.059408,29.22 236.443408,29.528 C234.595408,30.452 231.955408,31.244 228.787408,31.244 C220.999408,31.244 216.379408,26.756 216.379408,19.144 C216.379408,11.356 220.779408,7 227.599408,7 C234.463408,7 238.203408,11.532 238.203408,18.044 L238.203408,20.2 C238.203408,20.948 237.895408,21.256 237.147408,21.256 L222.143408,21.256 C222.583408,24.732 225.179408,26.932 229.271408,26.932 Z M227.687408,11.312 C224.255408,11.312 222.319408,13.336 222.011408,17.56 L232.923408,17.56 L232.923408,17.296 C232.923408,13.644 231.163408,11.312 227.687408,11.312 Z" id="me" fill="#08A5F4" fill-rule="nonzero"></path>
        </g>
    </g>
</svg>