<?xml version="1.0" encoding="UTF-8"?>
<svg width="37px" height="39px" viewBox="0 0 37 39" version="1.1" xmlns="http://www.w3.org/2000/svg" xmlns:xlink="http://www.w3.org/1999/xlink">
    <!-- Generator: Sketch 52 (66869) - http://www.bohemiancoding.com/sketch -->
    <title>Shape</title>
    <desc>Created with Sketch.</desc>
    <g id="Page-1" stroke="none" stroke-width="1" fill="none" fill-rule="evenodd">
        <g id="550-px-a-949-px." transform="translate(-387.000000, -981.000000)" fill="#4AB0FA" fill-rule="nonzero">
            <g id="verify" transform="translate(387.000000, 981.000000)">
                <path d="M34.2875125,19.4904283 L36.8645549,14.4305363 C37.0139764,14.1251271 37.0408536,13.7735755 36.9396144,13.4487662 C36.8337534,13.1326397 36.6092877,12.8706592 36.3141187,12.7187321 L31.2851329,10.1510257 L30.4094389,4.53731462 C30.3491773,4.20817014 30.1711623,3.91264029 29.9090423,3.70658608 C29.6337043,3.50901159 29.2924535,3.42769233 28.9582888,3.48002375 L23.3788668,4.38627307 L19.375694,0.358498325 C18.8885496,-0.119499442 18.1114504,-0.119499442 17.624306,0.358498325 L13.6211332,4.38627307 L8.04171122,3.48002375 C7.70754649,3.42769233 7.3662957,3.50901159 7.09095769,3.70658608 C6.82883769,3.91264029 6.65082271,4.20817014 6.5905611,4.53731462 L5.71486706,10.1510257 L0.685881304,12.7187321 C0.390712336,12.8706592 0.166246556,13.1326397 0.0603855637,13.4487662 C-0.0408536404,13.7735755 -0.0139763859,14.1251271 0.135445053,14.4305363 L2.7124875,19.4904283 L0.135445053,24.5503204 C-0.0140269364,24.8557156 -0.0409057121,25.2072871 0.0603855637,25.5320904 C0.166223035,25.8482305 0.390695606,26.1102189 0.685881304,26.2621246 L5.71486706,28.829831 L6.5905611,34.4435421 C6.65082271,34.7726865 6.82883769,35.0682164 7.09095769,35.2742706 C7.36635171,35.4717209 7.7075518,35.5530281 8.04171122,35.5008329 L13.6211332,34.5945836 L17.624306,38.6223584 C17.8525389,38.8635106 18.1690371,39 18.5,39 C18.8309629,39 19.1474611,38.8635106 19.375694,38.6223584 L23.3788668,34.5945836 L28.9582888,35.5008329 C29.2924482,35.5530281 29.6336483,35.4717209 29.9090423,35.2742706 C30.1711623,35.0682164 30.3491773,34.7726865 30.4094389,34.4435421 L31.2851329,28.829831 L36.3141187,26.2621246 C36.6093044,26.1102189 36.833777,25.8482305 36.9396144,25.5320904 C37.0409057,25.2072871 37.0140269,24.8557156 36.8645549,24.5503204 L34.2875125,19.4904283 Z M25.6243773,16.179754 L17.2875679,24.619817 C17.0561099,24.8580828 16.7413794,24.9946379 16.4113266,25 C16.0728694,24.9998875 15.7484508,24.8630389 15.5100499,24.619817 L11.3541629,20.3871127 C10.8785348,19.8957664 10.8824634,19.1082985 11.3629696,18.621841 C11.8434758,18.1353836 12.6213101,18.1314064 13.1066454,18.6129253 L16.4113266,21.9331903 L23.8718949,14.380221 C24.1002704,14.1374216 24.4169664,14 24.7481361,14 C25.0793058,14 25.3960018,14.1374216 25.6243773,14.380221 C25.8645095,14.6164545 26,14.9410083 26,15.2799875 C26,15.6189667 25.8645095,15.9435206 25.6243773,16.179754 Z" id="Shape"></path>
            </g>
        </g>
    </g>
</svg>