<?xml version="1.0" encoding="UTF-8"?>
<svg width="33px" height="33px" viewBox="0 0 33 33" version="1.1" xmlns="http://www.w3.org/2000/svg" xmlns:xlink="http://www.w3.org/1999/xlink">
    <!-- Generator: Sketch 52 (66869) - http://www.bohemiancoding.com/sketch -->
    <title>ic_home_animals</title>
    <desc>Created with Sketch.</desc>
    <g id="ic_home_animals" stroke="none" stroke-width="1" fill="none" fill-rule="evenodd" opacity="0.282714844">
        <g id="bird" transform="translate(2.000000, 2.000000)" fill="#000000" fill-rule="nonzero" stroke="#000000" stroke-width="0.9">
            <path d="M27.9501097,5.94931774 L27.9501097,4.31189084 L26.2278265,4.31189084 C26.0438292,3.3004386 25.5611294,2.3636087 24.8225816,1.61141572 C23.8691216,0.640259517 22.6009686,0.0878411306 21.251797,0.0560733458 C19.841222,0.0219602963 18.5116654,0.546661793 17.5046906,1.53039715 C16.4972892,2.51434575 15.9423124,3.83174951 15.9423124,5.23976608 C15.9423124,5.25255848 15.9425256,5.26535088 15.9427388,5.27814327 C15.963633,6.69873905 15.2739096,8.00356361 14.0976486,8.76897538 L13.4991776,9.15829071 C11.8054642,10.2601426 10.5733431,11.9171845 10.0298794,13.8241045 C9.61988304,15.2628229 8.70565302,16.5405702 7.45178486,17.4243116 L0.0272904483,22.7182322 L12.9808723,23.9117629 C13.1778752,23.9298855 13.3744517,23.9424647 13.5706018,23.9505665 L14.7257554,26.3625731 L12.4493482,26.3625731 L12.4493482,28 L20.1998355,28 L20.1998355,26.3625731 L16.5412098,26.3625731 L15.3545017,23.8844725 C17.8149062,23.5994152 20.1181774,22.5176048 21.8982395,20.7669652 C24.1313658,18.5707237 25.2788438,15.5466009 25.0464486,12.469816 L24.7784478,8.92099169 C25.5907651,8.1165631 26.1094968,7.07419591 26.2640716,5.94931774 L27.9501097,5.94931774 Z M23.4058236,7.958577 L23.0840948,8.22870981 L23.4137122,12.5932626 C23.6096491,15.1884138 22.6389194,17.7419895 20.7501218,19.5996589 C18.7506701,21.5662768 15.9736537,22.5434028 13.131183,22.2811586 L4.56731241,21.4922941 L6.60620735,20.0384381 L9.54248902,20.3094237 C9.89726485,20.3422576 10.2505483,20.3582481 10.6027656,20.3582481 C13.5486416,20.3582481 16.3659539,19.2237756 18.459643,17.1648392 C20.6927693,14.9683845 21.8402473,11.9442617 21.6080653,8.86747687 L19.9751157,8.99071027 C20.1712658,11.5858613 19.2003229,14.1396504 17.3115253,15.9973197 C15.3120736,17.9637244 12.5350572,18.94149 9.69301293,18.6788194 L8.64190423,18.5818104 C10.0725207,17.4944567 11.1197917,15.9751462 11.6048368,14.2729045 C12.0399915,12.7461318 13.0299098,11.4172149 14.3923002,10.5307018 L14.9907712,10.1413865 C16.6414169,9.06746465 17.609375,7.24028388 17.5799525,5.25341131 L17.5799525,5.23976608 C17.5799525,4.27649851 17.9596735,3.37506094 18.6489705,2.70175439 C19.3380543,2.02866108 20.2482334,1.66983431 21.213633,1.69307382 C23.1115984,1.73763404 24.6645955,3.31941397 24.6754691,5.21908505 C24.6812256,6.27808239 24.2185673,7.27674218 23.4058236,7.958577 Z" id="Shape"></path>
        </g>
    </g>
</svg>