<?xml version="1.0" encoding="UTF-8"?>
<svg width="33px" height="33px" viewBox="0 0 33 33" version="1.1" xmlns="http://www.w3.org/2000/svg" xmlns:xlink="http://www.w3.org/1999/xlink">
    <!-- Generator: Sketch 52 (66869) - http://www.bohemiancoding.com/sketch -->
    <title>ic_home_education</title>
    <desc>Created with Sketch.</desc>
    <g id="ic_home_education" stroke="none" stroke-width="1" fill="none" fill-rule="evenodd" opacity="0.282714844" stroke-linecap="round" stroke-linejoin="round">
        <g id="edu" transform="translate(2.500000, 2.000000)" stroke="#000000" stroke-width="3">
            <path d="M16.9273826,15.2998119 L14.7663357,16.482313 C14.3419017,16.7145587 13.8284656,16.7149016 13.4037217,16.4832231 L0.740847334,9.57620074 C0.0518523289,9.20038528 -0.202029857,8.33718585 0.1737856,7.64819085 C0.304444816,7.40864895 0.501305438,7.21178833 0.740847334,7.08112911 L13.4048032,0.173516817 C13.8289554,-0.0578389391 14.3415991,-0.0578389391 14.7657514,0.173516817 L27.4228976,7.07741475 C28.1118926,7.45323021 28.3657748,8.31642964 27.9899593,9.00542465 C27.8587218,9.24602676 27.6607089,9.44354579 27.4197797,9.57418199 L26.874751,9.86970658" id="Path"></path>
            <path d="M4.13790887,13.1308428 L4.13790887,16.3796631 C4.13790887,20.5663023 8.59149741,23.9602439 14.0852773,23.9602439 C15.0834433,23.9602439 16.0183657,23.8482053 16.9273826,23.6397301" id="Path"></path>
            <polyline id="Path-120" points="14.0852773 8.32866493 22.6115931 12.5918228 22.6115931 26.8023491 24.0326457 26.8023491 24.0326457 22.5391912 22.6115931 19.697086"></polyline>
        </g>
    </g>
</svg>