<?xml version="1.0" encoding="UTF-8"?>
<svg width="33px" height="33px" viewBox="0 0 33 33" version="1.1" xmlns="http://www.w3.org/2000/svg" xmlns:xlink="http://www.w3.org/1999/xlink">
    <!-- Generator: Sketch 52 (66869) - http://www.bohemiancoding.com/sketch -->
    <title>ic_home_enter</title>
    <desc>Created with Sketch.</desc>
    <g id="ic_home_enter" stroke="none" stroke-width="1" fill="none" fill-rule="evenodd">
        <g id="film-strip" transform="translate(4.500000, 3.000000)" fill="#000000" fill-rule="nonzero" stroke="#000000" stroke-width="0.9">
            <path d="M20.8031248,0 L2.31145831,0 C1.0369202,0 0,1.0369202 0,2.31145831 L0,23.9878007 C0,25.2623388 1.0369202,26.299259 2.31145831,26.299259 L20.8031248,26.299259 C22.0776629,26.299259 23.1145831,25.2623388 23.1145831,23.9878007 L23.1145831,2.31145831 C23.1145831,1.0369202 22.0776629,0 20.8031248,0 Z M4.62291662,24.7582868 L2.31145831,24.7582868 C1.88661227,24.7582868 1.54097221,24.4126467 1.54097221,23.9878007 L1.54097221,20.8544905 L4.62291662,20.8544905 L4.62291662,24.7582868 Z M4.62291662,19.3135183 L1.54097221,19.3135183 L1.54097221,16.2315739 L4.62291662,16.2315739 L4.62291662,19.3135183 Z M4.62291662,14.6906017 L1.54097221,14.6906017 L1.54097221,11.6086573 L4.62291662,11.6086573 L4.62291662,14.6906017 Z M4.62291662,10.0676851 L1.54097221,10.0676851 L1.54097221,6.98574067 L4.62291662,6.98574067 L4.62291662,10.0676851 Z M4.62291662,5.44476847 L1.54097221,5.44476847 L1.54097221,2.31145831 C1.54097221,1.88661227 1.88661227,1.54097221 2.31145831,1.54097221 L4.62291662,1.54097221 L4.62291662,5.44476847 Z M16.9506943,24.7582868 L6.16388883,24.7582868 L6.16388883,13.9201156 L16.9506943,13.9201156 L16.9506943,24.7582868 Z M16.9506943,12.3791434 L6.16388883,12.3791434 L6.16388883,1.54097221 L16.9506943,1.54097221 L16.9506943,12.3791434 Z M21.5736109,23.9878007 C21.5736109,24.4126467 21.2279708,24.7582868 20.8031248,24.7582868 L18.4916665,24.7582868 L18.4916665,20.8544905 L21.5736109,20.8544905 L21.5736109,23.9878007 Z M21.5736109,19.3135183 L18.4916665,19.3135183 L18.4916665,16.2315739 L21.5736109,16.2315739 L21.5736109,19.3135183 Z M21.5736109,14.6906017 L18.4916665,14.6906017 L18.4916665,11.6086573 L21.5736109,11.6086573 L21.5736109,14.6906017 Z M21.5736109,10.0676851 L18.4916665,10.0676851 L18.4916665,6.98574067 L21.5736109,6.98574067 L21.5736109,10.0676851 Z M21.5736109,5.44476847 L18.4916665,5.44476847 L18.4916665,1.54097221 L20.8031248,1.54097221 C21.2279708,1.54097221 21.5736109,1.88661227 21.5736109,2.31145831 L21.5736109,5.44476847 Z" id="Shape"></path>
        </g>
    </g>
</svg>