<?xml version="1.0" encoding="UTF-8"?>
<svg width="33px" height="33px" viewBox="0 0 33 33" version="1.1" xmlns="http://www.w3.org/2000/svg" xmlns:xlink="http://www.w3.org/1999/xlink">
    <!-- Generator: Sketch 52 (66869) - http://www.bohemiancoding.com/sketch -->
    <title>ic_home_health</title>
    <desc>Created with Sketch.</desc>
    <g id="ic_home_health" stroke="none" stroke-width="1" fill="none" fill-rule="evenodd" stroke-linecap="round" stroke-linejoin="round">
        <g id="health" transform="translate(2.500000, 3.000000)" stroke="#000000" stroke-width="3">
            <path d="M14.0265563,26 C9.44254509,22.9264381 5.93689039,19.867253 3.50959223,16.8224445 C1.08229407,13.7776361 -0.0859312494,10.9738954 0.0049162805,8.41122227 C0.00491628049,3.76583248 3.77074876,9.18891931e-13 8.41613855,9.18891931e-13 C10.5718224,9.18891931e-13 12.5381019,0.810936439 14.0265563,2.14438859 L14.0236201,2.14438859 C15.5120745,0.810936439 17.478354,0 19.6340379,0 C24.2794276,0 28.0452601,3.76583248 28.0452601,8.41122227 C28.0452601,12.0160586 27.9146115,4.80864895 28.0423239,8.41122227 C28.1331714,10.9738954 26.9649461,13.7776361 24.5376479,16.8224445 C22.1103497,19.867253 18.604695,22.9264381 14.0206838,26" id="Path"></path>
        </g>
    </g>
</svg>