<?xml version="1.0" encoding="UTF-8"?>
<svg width="33px" height="33px" viewBox="0 0 33 33" version="1.1" xmlns="http://www.w3.org/2000/svg" xmlns:xlink="http://www.w3.org/1999/xlink">
    <!-- Generator: Sketch 52 (66869) - http://www.bohemiancoding.com/sketch -->
    <title>ic_home_plantas</title>
    <desc>Created with Sketch.</desc>
    <g id="ic_home_plantas" stroke="none" stroke-width="1" fill="none" fill-rule="evenodd">
        <g id="flower-2" transform="translate(7.000000, 2.000000)" fill="#000000" fill-rule="nonzero" stroke="#000000" stroke-width="0.7">
            <path d="M18.1598191,16.2847163 C14.9815646,16.2847163 12.1626501,17.851396 10.4337993,20.2529585 L10.4337993,15.1532751 C14.7188713,14.7110012 18.0971567,11.0916653 18.0971567,6.64185855 L18.0971567,0.894325658 C18.0971567,0.53260074 17.8792393,0.206469984 17.5450596,0.0680879934 C17.2108203,-0.0703536184 16.826141,0.0062006579 16.5704235,0.261977796 L13.3711225,3.46127878 L10.1718215,0.261977796 C9.82261719,-0.0872861842 9.25633018,-0.0872861842 8.9070662,0.261977796 L5.70776521,3.46127878 L2.50846423,0.261977796 C2.25268709,0.00614103619 1.86794819,-0.0702939967 1.53382813,0.0680879934 C1.19964844,0.206529605 0.981731086,0.532660362 0.981731086,0.894325658 L0.981731086,6.64185855 C0.981731086,11.0885053 4.35810855,14.710882 8.6450884,15.1532751 L8.6450884,20.2533758 C6.9160588,17.8516345 4.0967866,16.2846567 0.91811472,16.2846567 C0.42420847,16.2846567 0.0237890625,16.6850761 0.0237890625,17.1789823 C0.0237890625,22.1243051 3.81602796,26.1999856 8.6450884,26.6522759 L8.6450884,29.6319901 C8.6450884,30.1258964 9.04550781,30.5263158 9.53941406,30.5263158 C10.0333203,30.5263158 10.4337397,30.1258964 10.4337397,29.6319901 L10.4337397,26.6523355 C15.2628002,26.2000452 19.0550391,22.1243647 19.0550391,17.1790419 C19.0550987,16.6851357 18.6537253,16.2847163 18.1598191,16.2847163 Z M1.87092928,18.1317969 C5.37161801,18.5640543 8.15446135,21.3468976 8.58671875,24.8475863 C5.08603002,24.4153289 2.30318668,21.6324856 1.87092928,18.1317969 Z M9.53947368,13.4109498 C5.80238487,13.4109498 2.77044202,10.3865789 2.77044202,6.64191817 L2.77044202,3.05346628 L5.07541735,5.35844161 C5.42462171,5.70770559 5.99090872,5.70770559 6.3401727,5.35844161 L9.53947368,2.15914063 L12.7387747,5.35844161 C13.087979,5.70770559 13.654266,5.70770559 14.00353,5.35844161 L16.3085053,3.05346628 L16.3085053,6.64185855 C16.3085053,10.3827035 13.2814515,13.4109498 9.53947368,13.4109498 Z M10.4921094,24.8475863 C10.9240687,21.3467188 13.7071505,18.5636369 17.2080181,18.1316776 C16.7757607,21.6323664 13.9927981,24.4153289 10.4921094,24.8475863 Z" id="Shape"></path>
        </g>
    </g>
</svg>