<?xml version="1.0" encoding="UTF-8"?>
<svg width="33px" height="33px" viewBox="0 0 33 33" version="1.1" xmlns="http://www.w3.org/2000/svg" xmlns:xlink="http://www.w3.org/1999/xlink">
    <!-- Generator: Sketch 52 (66869) - http://www.bohemiancoding.com/sketch -->
    <title>03_home_trends</title>
    <desc>Created with Sketch.</desc>
    <defs>
        <path d="M9.43827322,24.6708294 C11.2177756,26.4899145 13.5824141,27.4932509 16.1019417,27.4949719 L16.1105466,27.4949719 C18.6352371,27.4949719 21.0084806,26.4916355 22.7965879,24.6708294 C26.5070397,20.8880961 26.5001557,14.7355613 22.781099,10.957991 L16.7488137,3.94203393 C17.7294917,7.86474583 15.6795011,13.7488137 12.8261018,13.7488137 C11.9518395,13.7488137 11.532548,12.4035219 9.88406785,10.8067798 C5.96135595,14.7294917 5.79321904,20.9552146 9.43827322,24.6708294 Z M16.19151,30.3 C12.9250813,30.2967433 9.86056541,29.0022215 7.56299266,26.6492855 C2.81804084,21.8131473 2.81152752,13.9434314 7.54833769,9.11543476 L9.14898547,7.49687536 C9.56258114,7.08327969 10.1634347,6.92370341 10.7317216,7.07188139 C11.2967519,7.22494435 11.7364009,7.66947827 11.8829505,8.23613689 C12.2574663,9.68372171 12.7036285,10.3953017 12.9495062,10.6656043 C13.5275632,10.0566091 14.5729506,7.59620345 14.5729506,3.43256522 C14.5729506,3.1932008 14.5729506,2.96686302 14.559924,2.74052523 C14.5289857,2.26016807 14.712987,1.78958088 15.0614495,1.45740168 C15.7078962,0.843521506 16.7435137,0.843521506 17.3639072,1.48182662 L24.8379391,9.11706309 C29.5926608,13.9434314 29.6008025,21.8131473 24.8542223,26.6509139 C22.543623,29.0054781 19.4725937,30.3 16.2029083,30.3 L16.19151,30.3 Z" id="path-1"></path>
    </defs>
    <g id="03_home_trends" stroke="none" stroke-width="1" fill="none" fill-rule="evenodd">
        <mask id="mask-2" fill="white">
            <use xlink:href="#path-1"></use>
        </mask>
        <use id="🎨-Icon-Сolor" fill="#000000" fill-rule="nonzero" xlink:href="#path-1"></use>
    </g>
</svg>