<?xml version="1.0" encoding="UTF-8"?>
<svg width="72px" height="72px" viewBox="0 0 72 72" version="1.1" xmlns="http://www.w3.org/2000/svg" xmlns:xlink="http://www.w3.org/1999/xlink">
    <!-- Generator: Sketch 52 (66869) - http://www.bohemiancoding.com/sketch -->
    <title>education</title>
    <desc>Created with Sketch.</desc>
    <g id="Web-app" stroke="none" stroke-width="1" fill="none" fill-rule="evenodd">
        <g id="950-px-a-1605-px-=-100%" transform="translate(-572.000000, -1642.000000)">
            <g id="middle" transform="translate(84.000000, 1438.000000)">
                <g id="cell-1" transform="translate(460.000000, 176.000000)">
                    <g id="education" transform="translate(28.000000, 28.000000)">
                        <circle id="Oval" fill="#FFFFFF" cx="36" cy="36" r="36"></circle>
                        <g id="Icon" transform="translate(22.000000, 27.000000)" stroke="#34A1FF" stroke-linejoin="round" stroke-width="2.5">
                            <path d="M13.9930864,21.8635019 L13.9930864,2.59002408" id="Stroke-450"></path>
                            <path d="M0,20.5786034 L0,0.328602683 C0,-0.0183199174 0.602338765,0.0202270382 0.953438025,0.0202270382 L9.22208,0.0202270382 C11.153762,0.0202270382 13.2323714,1.12266997 14.1520988,2.66583309" id="Stroke-451" stroke-linecap="round"></path>
                            <path d="M27.9861728,20.5786034 L27.9861728,0.328602683 C27.9861728,-0.0183199174 28.0192474,0.0202270382 27.6675121,0.0202270382 L19.3988701,0.0202270382 C17.4640079,0.0202270382 15.069282,1.11431813 14.1520988,2.66454819" id="Stroke-452" stroke-linecap="round"></path>
                            <path d="M0.636049383,21.2210526 L9.50003358,21.2210526 C11.3636583,21.2210526 13.3271427,22.0806497 14.3111111,23.3925311" id="Stroke-453" stroke-linecap="round"></path>
                            <path d="M27.9861728,21.2210526 L19.1221886,21.2210526 C17.258564,21.2210526 15.2950795,22.0806497 14.3111111,23.3925311" id="Stroke-454" stroke-linecap="round"></path>
                        </g>
                    </g>
                </g>
            </g>
        </g>
    </g>
</svg>