<?xml version="1.0" encoding="UTF-8"?>
<svg width="72px" height="72px" viewBox="0 0 72 72" version="1.1" xmlns="http://www.w3.org/2000/svg" xmlns:xlink="http://www.w3.org/1999/xlink">
    <!-- Generator: Sketch 52 (66869) - http://www.bohemiancoding.com/sketch -->
    <title>Enter</title>
    <desc>Created with Sketch.</desc>
    <defs>
        <path d="M46.1344535,32.7142857 L42.8571429,32.7142857 L42.8571429,36.1428571 L46.1344535,36.1428571 L46.1344535,32.7142857 Z M46.1344535,30.1428571 L46.1344535,28.8638095 C46.1344535,28.1500472 45.535117,27.5714286 44.795798,27.5714286 L42.8571429,27.5714286 L42.8571429,30.1428571 L46.1344535,30.1428571 Z M46.1344535,41.2857143 L46.1344535,38.7142857 L42.8571429,38.7142857 L42.8571429,41.2857143 L46.1344535,41.2857143 Z M46.1344535,43.8571429 L42.8571429,43.8571429 L42.8571429,47.2857143 L44.795798,47.2857143 C45.535117,47.2857143 46.1344535,46.7070956 46.1344535,45.9933333 L46.1344535,43.8571429 Z M25.7142857,41.2857143 L29.1428571,41.2857143 L29.1428571,38.7142857 L25.7142857,38.7142857 L25.7142857,41.2857143 Z M25.7142857,43.8571429 L25.7142857,45.9933333 C25.7142857,46.7070956 26.3136222,47.2857143 27.0529412,47.2857143 L29.1428571,47.2857143 L29.1428571,43.8571429 L25.7142857,43.8571429 Z M25.7142857,32.7142857 L25.7142857,36.1428571 L29.1428571,36.1428571 L29.1428571,32.7142857 L25.7142857,32.7142857 Z M25.7142857,30.1428571 L29.1428571,30.1428571 L29.1428571,27.5714286 L27.0529412,27.5714286 C26.3136222,27.5714286 25.7142857,28.1500472 25.7142857,28.8638095 L25.7142857,30.1428571 Z M31.7142857,36.1428571 L40.2857143,36.1428571 L40.2857143,27.5714286 L31.7142857,27.5714286 L31.7142857,36.1428571 Z M31.7142857,38.7142857 L31.7142857,47.2857143 L40.2857143,47.2857143 L40.2857143,38.7142857 L31.7142857,38.7142857 Z M27.4690909,25 L44.5309091,25 C46.4468351,25 48,26.5531649 48,28.4690909 L48,45.5309091 C48,47.4468351 46.4468351,49 44.5309091,49 L27.4690909,49 C25.5531649,49 24,47.4468351 24,45.5309091 L24,28.4690909 C24,26.5531649 25.5531649,25 27.4690909,25 Z" id="path-1"></path>
    </defs>
    <g id="Web-app" stroke="none" stroke-width="1" fill="none" fill-rule="evenodd">
        <g id="1,606-px-en-adelante" transform="translate(-1700.000000, -2208.000000)">
            <g id="middle" transform="translate(297.000000, 1995.000000)">
                <g id="cell-1" transform="translate(1375.000000, 185.000000)">
                    <g id="Enter" transform="translate(28.000000, 28.000000)">
                        <circle id="Oval" fill="#FFFFFF" cx="36" cy="36" r="36"></circle>
                        <mask id="mask-2" fill="white">
                            <use xlink:href="#path-1"></use>
                        </mask>
                        <use id="Combined-Shape" fill="#34A1FF" xlink:href="#path-1"></use>
                    </g>
                </g>
            </g>
        </g>
    </g>
</svg>