<?xml version="1.0" encoding="UTF-8"?>
<svg width="72px" height="72px" viewBox="0 0 72 72" version="1.1" xmlns="http://www.w3.org/2000/svg" xmlns:xlink="http://www.w3.org/1999/xlink">
    <!-- Generator: Sketch 52 (66869) - http://www.bohemiancoding.com/sketch -->
    <title>sports</title>
    <desc>Created with Sketch.</desc>
    <g id="Web-app" stroke="none" stroke-width="1" fill="none" fill-rule="evenodd">
        <g id="1,606-px-en-adelante" transform="translate(-2160.000000, -2208.000000)">
            <g id="middle" transform="translate(297.000000, 1995.000000)">
                <g id="cell-1" transform="translate(1835.000000, 185.000000)">
                    <g id="sports" transform="translate(28.000000, 28.000000)">
                        <circle id="Oval" fill="#FFFFFF" cx="36" cy="36" r="36"></circle>
                        <g transform="translate(17.000000, 28.000000)" id="Path" stroke="#34A1FF" stroke-linecap="round" stroke-linejoin="round" stroke-width="2.5">
                            <path d="M7.24639799,19.323728 C5.91789169,19.323728 4.83093199,18.2367683 4.83093199,16.908262 L4.83093199,2.415466 C4.83093199,1.0869597 5.91789169,0 7.24639799,0 C8.57490429,0 9.66186399,1.0869597 9.66186399,2.415466 L9.66186399,16.908262 C9.66186399,18.2367683 8.57490429,19.323728 7.24639799,19.323728 Z"></path>
                            <path d="M2.415466,15.700529 C1.0869597,15.700529 0,14.6135693 0,13.285063 L0,6.03866499 C0,4.71015869 1.0869597,3.623199 2.415466,3.623199 C3.7439723,3.623199 4.83093199,4.71015869 4.83093199,6.03866499 L4.83093199,13.285063 C4.83093199,14.6135693 3.7439723,15.700529 2.415466,15.700529 Z"></path>
                            <path d="M28.985592,0 C30.3140983,0 31.401058,1.0869597 31.401058,2.415466 L31.401058,16.908262 C31.401058,18.2367683 30.3140983,19.323728 28.985592,19.323728 C27.6570857,19.323728 26.570126,18.2367683 26.570126,16.908262 L26.570126,2.415466 C26.570126,1.0869597 27.6570857,0 28.985592,0 Z"></path>
                            <path d="M33.816524,3.623199 C35.1450303,3.623199 36.23199,4.71015869 36.23199,6.03866499 L36.23199,13.285063 C36.23199,14.6135693 35.1450303,15.700529 33.816524,15.700529 C32.4880177,15.700529 31.401058,14.6135693 31.401058,13.285063 L31.401058,6.03866499 C31.401058,4.71015869 32.4880177,3.623199 33.816524,3.623199 Z"></path>
                            <path d="M9.66186399,9.66186399 L26.570126,9.66186399"></path>
                        </g>
                    </g>
                </g>
            </g>
        </g>
    </g>
</svg>